<?xml version="1.0" encoding="UTF-8" standalone="no"?>
<!-- Created with Inkscape (http://www.inkscape.org/) -->
<svg xmlns:svg="http://www.w3.org/2000/svg" xmlns="http://www.w3.org/2000/svg" version="1.0" width="224.33099" height="92.166" viewBox="19.7 -8.056 224.331 92.166" id="Layer_1" xml:space="preserve"><defs id="defs88"/>
<path d="M 41.477,-1.107 C 33.509,-1.107 27.026,5.375 27.026,13.344 L 27.026,41.154 C 27.026,48.432 32.145,55.24 38.934,56.989 C 40.949,57.512 44.57,59.804 46.104,61.531 L 53.148,69.445 C 57.113,73.913 64.339,77.158 70.326,77.158 L 193.415,77.158 C 199.396,77.158 206.621,73.908 210.593,69.43 L 217.611,61.537 C 219.149,59.805 222.772,57.51 224.791,56.988 C 231.582,55.238 236.703,48.429 236.703,41.153 L 236.703,13.343 C 236.703,5.375 230.22,-1.108 222.251,-1.108 L 41.477,-1.108 L 41.477,-1.107 z " id="path3"/>
<path d="M 41.477,4.893 C 36.817,4.893 33.026,8.684 33.026,13.344 L 33.026,41.154 C 33.026,45.63 36.348,50.128 40.432,51.18 C 43.601,52.001 48.253,54.917 50.589,57.546 L 57.63,65.456 C 60.467,68.652 66.044,71.157 70.326,71.157 L 193.415,71.157 C 197.69,71.157 203.267,68.649 206.105,65.449 L 213.127,57.551 C 215.467,54.916 220.119,51.999 223.289,51.18 C 227.379,50.126 230.703,45.627 230.703,41.154 L 230.703,13.344 C 230.703,8.684 226.91,4.893 222.249,4.893 L 41.477,4.893 L 41.477,4.893 z " style="fill:white" id="path3578"/>
<path d="M 58.036,32.412 C 57.271,32.412 56.646,33.035 56.646,33.802 L 56.646,38.986 C 56.646,39.752 57.257,40.561 57.988,40.787 L 65.895,43.23 C 66.627,43.455 67.849,43.64 68.616,43.64 L 195.104,43.64 C 195.871,43.64 197.092,43.452 197.825,43.23 L 205.735,40.787 C 206.467,40.561 207.088,39.752 207.088,38.986 L 207.088,33.802 C 207.088,33.035 206.458,32.412 205.692,32.412 L 58.036,32.412 L 58.036,32.412 z " style="fill:none;stroke:black" id="path3582"/>
<g id="g3584">
	<g id="g3586">
		<rect width="8.1400003" height="4.2069998" x="134.771" y="30.864" style="fill:white;stroke:black" id="rect3588"/>
	</g>
	<g id="g3592">
		<rect width="8.1400003" height="4.2069998" x="120.821" y="30.864" style="fill:white;stroke:black" id="rect3594"/>
	</g>
	<g id="g3598">
		<rect width="8.1400003" height="4.2069998" x="106.875" y="30.864" style="fill:white;stroke:black" id="rect3600"/>
	</g>
	<g id="g3604">
		<rect width="8.1400003" height="4.2069998" x="92.924004" y="30.864" style="fill:white;stroke:black" id="rect3606"/>
	</g>
	<g id="g3610">
		<rect width="8.1389999" height="4.2069998" x="78.978996" y="30.864" style="fill:white;stroke:black" id="rect3612"/>
	</g>
	<g id="g3616">
		<rect width="8.1389999" height="4.2069998" x="65.031998" y="30.864" style="fill:white;stroke:black" id="rect3618"/>
	</g>
	<g id="g3622">
		<rect width="8.1389999" height="4.2069998" x="148.718" y="30.864" style="fill:white;stroke:black" id="rect3624"/>
	</g>
	<g id="g3628">
		<rect width="8.1389999" height="4.2069998" x="162.66901" y="30.864" style="fill:white;stroke:black" id="rect3630"/>
	</g>
	<g id="g3634">
		<rect width="8.1409998" height="4.2069998" x="176.61501" y="30.864" style="fill:white;stroke:black" id="rect3636"/>
	</g>
	<g id="g3640">
		<rect width="8.1389999" height="4.2069998" x="190.562" y="30.864" style="fill:white;stroke:black" id="rect3642"/>
	</g>
	<g id="g3646">
		<rect width="8.1420002" height="4.2080002" x="141.742" y="40.980999" style="fill:white;stroke:black" id="rect3648"/>
	</g>
	<g id="g3652">
		<rect width="8.1400003" height="4.2080002" x="127.796" y="40.980999" style="fill:white;stroke:black" id="rect3654"/>
	</g>
	<g id="g3658">
		<rect width="8.1400003" height="4.2080002" x="113.846" y="40.980999" style="fill:white;stroke:black" id="rect3660"/>
	</g>
	<g id="g3664">
		<rect width="8.1400003" height="4.2080002" x="99.899002" y="40.980999" style="fill:white;stroke:black" id="rect3666"/>
	</g>
	<g id="g3670">
		<rect width="8.1389999" height="4.2080002" x="85.948997" y="40.980999" style="fill:white;stroke:black" id="rect3672"/>
	</g>
	<g id="g3676">
		<rect width="8.1389999" height="4.2080002" x="72.002998" y="40.980999" style="fill:white;stroke:black" id="rect3678"/>
	</g>
	<g id="g3682">
		<rect width="8.1389999" height="4.2080002" x="155.688" y="40.980999" style="fill:white;stroke:black" id="rect3684"/>
	</g>
	<g id="g3688">
		<rect width="8.1389999" height="4.2080002" x="169.64" y="40.980999" style="fill:white;stroke:black" id="rect3690"/>
	</g>
	<g id="g3694">
		<rect width="8.1389999" height="4.2080002" x="183.586" y="40.980999" style="fill:white;stroke:black" id="rect3696"/>
	</g>
</g>
<g id="g3700">
	<path d="M 188.869,52.675 L 186.589,52.675 C 186.65,52.571 186.732,52.469 186.828,52.365 C 186.928,52.261 187.147,52.065 187.491,51.777 C 187.9,51.429 188.192,51.157 188.37,50.96 C 188.547,50.76 188.676,50.571 188.751,50.389 C 188.826,50.212 188.864,50.027 188.864,49.84 C 188.864,49.476 188.734,49.166 188.474,48.919 C 188.212,48.672 187.86,48.548 187.412,48.548 C 186.969,48.548 186.615,48.663 186.351,48.891 C 186.088,49.122 185.935,49.458 185.897,49.898 L 186.482,49.96 C 186.486,49.665 186.568,49.436 186.734,49.272 C 186.902,49.108 187.121,49.022 187.398,49.022 C 187.658,49.022 187.872,49.098 188.03,49.254 C 188.195,49.411 188.276,49.603 188.276,49.828 C 188.276,50.046 188.185,50.273 188.005,50.516 C 187.823,50.757 187.483,51.088 186.979,51.506 C 186.653,51.771 186.405,52.008 186.232,52.21 C 186.059,52.413 185.933,52.618 185.857,52.829 C 185.808,52.954 185.786,53.086 185.79,53.224 L 188.867,53.224 L 188.869,52.675 L 188.869,52.675 z " id="path3702"/>
	<path d="M 174.408,53.22 L 174.408,52.107 L 175.034,52.107 L 175.034,51.586 L 174.408,51.586 L 174.408,48.565 L 173.942,48.565 L 171.817,51.586 L 171.817,52.107 L 173.838,52.107 L 173.838,53.22 L 174.408,53.22 z M 172.381,51.587 L 173.838,49.483 L 173.838,51.587 L 172.381,51.587 z " id="path3704"/>
	<path d="M 160.555,48.84 C 160.323,48.633 160.023,48.53 159.658,48.53 C 159.163,48.53 158.774,48.709 158.483,49.063 C 158.149,49.471 157.983,50.127 157.983,51.026 C 157.983,51.831 158.132,52.409 158.435,52.758 C 158.736,53.111 159.123,53.282 159.602,53.282 C 159.881,53.282 160.13,53.216 160.351,53.083 C 160.573,52.948 160.744,52.758 160.872,52.506 C 160.997,52.257 161.061,51.984 161.061,51.694 C 161.061,51.249 160.925,50.883 160.658,50.607 C 160.388,50.326 160.068,50.184 159.683,50.184 C 159.464,50.184 159.259,50.235 159.058,50.334 C 158.861,50.438 158.691,50.594 158.552,50.804 C 158.558,50.338 158.612,49.98 158.716,49.728 C 158.82,49.479 158.96,49.288 159.14,49.154 C 159.28,49.052 159.441,49.005 159.619,49.005 C 159.848,49.005 160.038,49.083 160.192,49.25 C 160.285,49.352 160.359,49.514 160.41,49.737 L 160.98,49.69 C 160.93,49.331 160.789,49.048 160.555,48.84 z M 158.908,50.968 C 159.09,50.782 159.308,50.691 159.565,50.691 C 159.828,50.691 160.044,50.784 160.215,50.968 C 160.386,51.152 160.472,51.406 160.472,51.731 C 160.472,52.065 160.386,52.328 160.214,52.524 C 160.037,52.719 159.83,52.817 159.588,52.817 C 159.421,52.817 159.264,52.77 159.113,52.675 C 158.966,52.579 158.843,52.445 158.761,52.262 C 158.678,52.083 158.636,51.896 158.636,51.699 C 158.64,51.397 158.73,51.153 158.908,50.968 z " id="path3706"/>
	<path d="M 144.313,51.101 C 144.158,51.305 144.084,51.56 144.084,51.862 C 144.084,52.269 144.223,52.608 144.504,52.881 C 144.786,53.152 145.156,53.291 145.615,53.291 C 146.075,53.291 146.445,53.152 146.729,52.882 C 147.009,52.611 147.151,52.278 147.151,51.877 C 147.151,51.592 147.077,51.344 146.926,51.137 C 146.778,50.93 146.559,50.78 146.275,50.685 C 146.505,50.599 146.676,50.474 146.792,50.317 C 146.905,50.156 146.963,49.965 146.963,49.751 C 146.963,49.412 146.839,49.125 146.592,48.889 C 146.346,48.655 146.016,48.535 145.61,48.535 C 145.207,48.535 144.884,48.652 144.638,48.883 C 144.398,49.112 144.273,49.4 144.273,49.737 C 144.273,49.964 144.331,50.157 144.448,50.317 C 144.561,50.473 144.737,50.6 144.973,50.686 C 144.687,50.756 144.465,50.897 144.313,51.101 z M 144.933,51.196 C 145.109,51.02 145.331,50.93 145.602,50.93 C 145.878,50.93 146.107,51.019 146.29,51.201 C 146.473,51.379 146.563,51.607 146.563,51.882 C 146.563,52.157 146.476,52.375 146.298,52.553 C 146.119,52.73 145.895,52.816 145.62,52.816 C 145.445,52.816 145.281,52.777 145.129,52.692 C 144.975,52.609 144.858,52.491 144.783,52.336 C 144.706,52.188 144.669,52.027 144.669,51.863 C 144.667,51.596 144.755,51.376 144.933,51.196 z M 145.071,49.214 C 145.217,49.074 145.397,49.003 145.615,49.003 C 145.835,49.003 146.013,49.076 146.156,49.219 C 146.302,49.363 146.373,49.537 146.373,49.747 C 146.373,49.948 146.304,50.117 146.162,50.256 C 146.023,50.396 145.844,50.465 145.622,50.465 C 145.394,50.465 145.211,50.396 145.069,50.256 C 144.928,50.115 144.858,49.936 144.858,49.714 C 144.858,49.52 144.93,49.353 145.071,49.214 z " id="path3708"/>
	<g id="g3710">
		<path d="M 130.319,48.533 L 129.945,48.533 C 129.847,48.736 129.677,48.944 129.44,49.158 C 129.2,49.373 128.921,49.554 128.602,49.705 L 128.602,50.26 C 128.778,50.194 128.98,50.094 129.201,49.962 C 129.426,49.832 129.605,49.7 129.745,49.568 L 129.745,53.209 L 130.319,53.209 L 130.319,48.533 L 130.319,48.533 z " id="path3712"/>
		<path d="M 132.242,52.807 C 132.495,53.125 132.85,53.286 133.302,53.286 C 133.643,53.286 133.925,53.196 134.148,53.014 C 134.372,52.831 134.54,52.573 134.653,52.236 C 134.766,51.902 134.823,51.459 134.823,50.913 C 134.823,50.452 134.788,50.085 134.718,49.811 C 134.648,49.54 134.551,49.309 134.431,49.121 C 134.306,48.932 134.151,48.786 133.961,48.685 C 133.773,48.583 133.552,48.533 133.304,48.533 C 132.963,48.533 132.682,48.623 132.457,48.806 C 132.235,48.989 132.067,49.246 131.954,49.582 C 131.839,49.916 131.781,50.361 131.781,50.911 C 131.781,51.787 131.935,52.419 132.242,52.807 z M 132.662,49.34 C 132.819,49.115 133.031,49.007 133.295,49.007 C 133.563,49.007 133.783,49.133 133.966,49.385 C 134.143,49.634 134.235,50.146 134.235,50.911 C 134.235,51.674 134.145,52.182 133.966,52.433 C 133.783,52.69 133.565,52.816 133.299,52.816 C 133.036,52.816 132.816,52.69 132.636,52.439 C 132.455,52.185 132.366,51.675 132.366,50.912 C 132.367,50.15 132.466,49.623 132.662,49.34 z " id="path3714"/>
	</g>
	<g id="g3716">
		<path d="M 116.428,53.224 L 116.428,48.549 L 116.058,48.549 C 115.958,48.751 115.79,48.958 115.55,49.172 C 115.312,49.387 115.033,49.568 114.715,49.717 L 114.715,50.274 C 114.89,50.209 115.092,50.11 115.314,49.977 C 115.538,49.847 115.719,49.714 115.855,49.582 L 115.855,53.224 L 116.428,53.224 L 116.428,53.224 z " id="path3718"/>
		<path d="M 120.901,52.675 L 118.616,52.675 C 118.679,52.571 118.762,52.469 118.858,52.365 C 118.958,52.261 119.177,52.065 119.522,51.777 C 119.93,51.43 120.224,51.158 120.401,50.96 C 120.578,50.76 120.705,50.571 120.78,50.389 C 120.857,50.212 120.895,50.027 120.895,49.84 C 120.895,49.476 120.766,49.166 120.504,48.92 C 120.244,48.673 119.891,48.548 119.444,48.548 C 119,48.548 118.648,48.663 118.384,48.891 C 118.122,49.123 117.97,49.458 117.929,49.898 L 118.516,49.96 C 118.52,49.665 118.602,49.437 118.767,49.272 C 118.932,49.106 119.154,49.022 119.43,49.022 C 119.691,49.022 119.902,49.098 120.064,49.254 C 120.227,49.411 120.308,49.603 120.308,49.828 C 120.308,50.046 120.22,50.273 120.039,50.516 C 119.861,50.757 119.518,51.088 119.013,51.507 C 118.688,51.772 118.439,52.007 118.265,52.21 C 118.095,52.413 117.968,52.618 117.89,52.829 C 117.841,52.954 117.82,53.089 117.823,53.224 L 120.901,53.224 L 120.901,52.675 L 120.901,52.675 L 120.901,52.675 z " id="path3720"/>
	</g>
	<g id="g3722">
		<path d="M 102.51,53.223 L 102.51,48.549 L 102.141,48.549 C 102.041,48.751 101.872,48.957 101.631,49.172 C 101.393,49.387 101.113,49.568 100.796,49.717 L 100.796,50.274 C 100.972,50.209 101.173,50.11 101.397,49.977 C 101.619,49.847 101.799,49.713 101.938,49.582 L 101.938,53.223 L 102.51,53.223 L 102.51,53.223 z " id="path3724"/>
		<path d="M 106.383,53.223 L 106.383,52.114 L 107.009,52.114 L 107.009,51.59 L 106.383,51.59 L 106.383,48.569 L 105.916,48.569 L 103.79,51.59 L 103.79,52.114 L 105.81,52.114 L 105.81,53.223 L 106.383,53.223 z M 105.809,51.59 L 104.352,51.59 L 105.809,49.486 L 105.809,51.59 L 105.809,51.59 z " id="path3726"/>
	</g>
	<g id="g3728">
		<path d="M 88.595,53.208 L 88.595,48.533 L 88.228,48.533 C 88.13,48.735 87.958,48.944 87.719,49.157 C 87.481,49.373 87.202,49.553 86.882,49.705 L 86.882,50.259 C 87.059,50.194 87.258,50.094 87.483,49.962 C 87.706,49.831 87.885,49.7 88.023,49.567 L 88.023,53.209 L 88.597,53.209 L 88.595,53.208 L 88.595,53.208 z " id="path3730"/>
		<path d="M 92.609,48.842 C 92.376,48.636 92.077,48.531 91.709,48.531 C 91.217,48.531 90.827,48.71 90.537,49.065 C 90.206,49.475 90.039,50.128 90.039,51.029 C 90.039,51.832 90.189,52.41 90.489,52.759 C 90.79,53.112 91.179,53.283 91.656,53.283 C 91.936,53.283 92.185,53.217 92.406,53.085 C 92.627,52.949 92.801,52.759 92.926,52.507 C 93.052,52.256 93.115,51.985 93.115,51.695 C 93.115,51.25 92.982,50.884 92.713,50.607 C 92.445,50.327 92.12,50.185 91.739,50.185 C 91.519,50.185 91.312,50.236 91.114,50.336 C 90.914,50.44 90.745,50.595 90.609,50.804 C 90.611,50.339 90.666,49.981 90.77,49.729 C 90.874,49.477 91.014,49.289 91.195,49.155 C 91.336,49.053 91.495,49.005 91.677,49.005 C 91.903,49.005 92.094,49.084 92.25,49.247 C 92.344,49.351 92.415,49.515 92.467,49.738 L 93.033,49.691 C 92.986,49.332 92.844,49.048 92.609,48.842 z M 90.966,50.969 C 91.143,50.781 91.365,50.692 91.623,50.692 C 91.885,50.692 92.102,50.783 92.271,50.969 C 92.444,51.154 92.53,51.407 92.53,51.729 C 92.53,52.065 92.444,52.329 92.269,52.524 C 92.096,52.718 91.889,52.817 91.645,52.817 C 91.479,52.817 91.32,52.77 91.169,52.676 C 91.018,52.579 90.903,52.443 90.82,52.263 C 90.734,52.081 90.694,51.897 90.694,51.7 C 90.695,51.398 90.785,51.154 90.966,50.969 z " id="path3732"/>
	</g>
	<g id="g3734">
		<path d="M 74.688,48.533 L 74.318,48.533 C 74.218,48.733 74.049,48.944 73.811,49.157 C 73.572,49.371 73.294,49.553 72.973,49.703 L 72.973,50.257 C 73.152,50.193 73.353,50.094 73.574,49.961 C 73.8,49.83 73.977,49.699 74.117,49.567 L 74.117,53.21 L 74.689,53.21 L 74.688,48.533 L 74.688,48.533 z " id="path3736"/>
		<path d="M 76.378,51.102 C 76.223,51.306 76.148,51.56 76.148,51.862 C 76.148,52.269 76.289,52.608 76.568,52.882 C 76.85,53.153 77.222,53.291 77.681,53.291 C 78.14,53.291 78.511,53.152 78.793,52.882 C 79.074,52.611 79.214,52.278 79.214,51.877 C 79.214,51.592 79.139,51.346 78.99,51.137 C 78.84,50.927 78.624,50.78 78.34,50.686 C 78.569,50.598 78.741,50.473 78.854,50.317 C 78.967,50.156 79.025,49.965 79.025,49.754 C 79.025,49.412 78.9,49.128 78.652,48.889 C 78.406,48.655 78.078,48.535 77.673,48.535 C 77.267,48.535 76.944,48.652 76.702,48.883 C 76.457,49.112 76.336,49.401 76.336,49.737 C 76.336,49.964 76.394,50.157 76.508,50.317 C 76.621,50.474 76.8,50.6 77.037,50.688 C 76.754,50.756 76.534,50.897 76.378,51.102 z M 76.998,51.2 C 77.173,51.02 77.395,50.931 77.667,50.931 C 77.943,50.931 78.174,51.02 78.354,51.202 C 78.537,51.382 78.628,51.61 78.628,51.883 C 78.628,52.156 78.541,52.377 78.363,52.555 C 78.186,52.731 77.961,52.82 77.686,52.82 C 77.511,52.82 77.346,52.779 77.193,52.695 C 77.041,52.611 76.924,52.493 76.848,52.339 C 76.771,52.189 76.733,52.028 76.733,51.866 C 76.734,51.596 76.824,51.377 76.998,51.2 z M 77.138,49.214 C 77.282,49.074 77.462,49.004 77.681,49.004 C 77.899,49.004 78.079,49.076 78.223,49.221 C 78.367,49.363 78.442,49.539 78.442,49.748 C 78.442,49.949 78.371,50.118 78.229,50.258 C 78.089,50.398 77.909,50.465 77.689,50.465 C 77.461,50.465 77.275,50.396 77.136,50.256 C 76.997,50.115 76.925,49.937 76.925,49.717 C 76.923,49.521 76.995,49.353 77.138,49.214 z " id="path3738"/>
	</g>
</g>
<g id="g3740">
	<path d="M 195.141,26.701 L 195.141,22.026 L 194.773,22.026 C 194.674,22.226 194.504,22.435 194.266,22.649 C 194.026,22.862 193.746,23.045 193.428,23.196 L 193.428,23.749 C 193.606,23.682 193.805,23.582 194.029,23.451 C 194.254,23.322 194.434,23.189 194.57,23.057 L 194.57,26.7 L 195.141,26.701 L 195.141,26.701 z " id="path3742"/>
	<path d="M 179.316,26.397 C 179.587,26.64 179.926,26.762 180.337,26.762 C 180.787,26.762 181.162,26.622 181.46,26.338 C 181.756,26.056 181.904,25.713 181.904,25.306 C 181.904,25.006 181.828,24.756 181.675,24.556 C 181.523,24.357 181.307,24.226 181.033,24.161 C 181.242,24.063 181.403,23.933 181.511,23.768 C 181.617,23.602 181.674,23.419 181.674,23.218 C 181.674,23.006 181.615,22.806 181.503,22.618 C 181.39,22.43 181.228,22.282 181.013,22.171 C 180.798,22.062 180.564,22.007 180.311,22.007 C 179.943,22.007 179.635,22.112 179.388,22.324 C 179.139,22.532 178.979,22.83 178.909,23.213 L 179.484,23.314 C 179.524,23.035 179.619,22.826 179.767,22.687 C 179.914,22.549 180.101,22.479 180.321,22.479 C 180.549,22.479 180.73,22.548 180.872,22.684 C 181.017,22.821 181.085,22.996 181.085,23.204 C 181.085,23.468 180.988,23.663 180.796,23.79 C 180.603,23.918 180.385,23.98 180.141,23.98 C 180.117,23.98 180.086,23.979 180.05,23.975 L 179.986,24.478 C 180.147,24.437 180.28,24.414 180.388,24.414 C 180.654,24.414 180.87,24.499 181.041,24.671 C 181.214,24.839 181.3,25.056 181.3,25.319 C 181.3,25.592 181.207,25.825 181.025,26.008 C 180.838,26.195 180.611,26.288 180.34,26.288 C 180.111,26.288 179.919,26.215 179.763,26.071 C 179.607,25.928 179.493,25.694 179.43,25.368 L 178.859,25.447 C 178.892,25.838 179.047,26.155 179.316,26.397 z " id="path3744"/>
	<path d="M 165.388,26.39 C 165.658,26.627 166.002,26.746 166.427,26.746 C 166.943,26.746 167.351,26.557 167.651,26.181 C 167.897,25.874 168.021,25.509 168.021,25.086 C 168.021,24.644 167.88,24.282 167.598,23.999 C 167.321,23.717 166.975,23.577 166.571,23.577 C 166.261,23.577 165.968,23.674 165.689,23.869 L 165.94,22.618 L 167.803,22.618 L 167.803,22.07 L 165.485,22.07 L 165.032,24.463 L 165.567,24.532 C 165.651,24.399 165.766,24.29 165.918,24.205 C 166.064,24.122 166.232,24.079 166.418,24.079 C 166.72,24.079 166.956,24.174 167.142,24.363 C 167.325,24.552 167.416,24.809 167.416,25.135 C 167.416,25.479 167.319,25.754 167.131,25.962 C 166.943,26.17 166.704,26.274 166.432,26.274 C 166.201,26.274 166.004,26.199 165.841,26.053 C 165.679,25.906 165.576,25.687 165.53,25.396 L 164.931,25.447 C 164.967,25.84 165.118,26.153 165.388,26.39 z " id="path3746"/>
	<path d="M 151.063,22.637 L 153.339,22.637 C 153.05,22.968 152.777,23.373 152.52,23.854 C 152.262,24.337 152.066,24.835 151.927,25.355 C 151.792,25.875 151.719,26.317 151.713,26.683 L 152.299,26.683 C 152.329,26.219 152.403,25.793 152.52,25.403 C 152.677,24.851 152.901,24.313 153.194,23.789 C 153.484,23.266 153.777,22.848 154.075,22.532 L 154.075,22.088 L 151.061,22.088 L 151.061,22.638 L 151.063,22.637 L 151.063,22.637 z " id="path3748"/>
	<path d="M 137.637,26.461 C 137.866,26.663 138.163,26.763 138.531,26.763 C 138.874,26.763 139.173,26.672 139.427,26.487 C 139.682,26.303 139.873,26.036 140.002,25.682 C 140.131,25.33 140.194,24.856 140.194,24.261 C 140.194,23.69 140.13,23.254 139.998,22.952 C 139.869,22.65 139.68,22.416 139.429,22.254 C 139.177,22.091 138.901,22.009 138.597,22.009 C 138.176,22.009 137.828,22.153 137.552,22.44 C 137.273,22.729 137.133,23.108 137.133,23.579 C 137.133,24.037 137.263,24.405 137.533,24.684 C 137.799,24.964 138.126,25.103 138.51,25.103 C 138.739,25.103 138.953,25.047 139.152,24.933 C 139.351,24.822 139.506,24.673 139.623,24.491 C 139.624,24.541 139.628,24.58 139.628,24.605 C 139.628,24.842 139.599,25.076 139.54,25.304 C 139.483,25.533 139.413,25.713 139.329,25.849 C 139.246,25.984 139.139,26.09 139.004,26.17 C 138.871,26.251 138.717,26.292 138.539,26.292 C 138.333,26.292 138.165,26.233 138.035,26.117 C 137.904,26.002 137.813,25.815 137.767,25.558 L 137.218,25.609 C 137.265,25.974 137.404,26.258 137.637,26.461 z M 139.301,24.323 C 139.13,24.508 138.912,24.601 138.649,24.601 C 138.382,24.601 138.165,24.507 137.986,24.323 C 137.808,24.138 137.717,23.896 137.717,23.599 C 137.717,23.269 137.81,22.999 137.998,22.794 C 138.185,22.585 138.406,22.482 138.664,22.482 C 138.91,22.482 139.122,22.578 139.294,22.772 C 139.469,22.965 139.556,23.224 139.556,23.553 C 139.557,23.88 139.472,24.137 139.301,24.323 z " id="path3750"/>
	<g id="g3752">
		<path d="M 124.049,26.7 L 124.049,22.025 L 123.679,22.025 C 123.581,22.225 123.411,22.434 123.174,22.648 C 122.934,22.861 122.655,23.045 122.336,23.193 L 122.336,23.747 C 122.512,23.681 122.714,23.582 122.937,23.451 C 123.159,23.32 123.339,23.189 123.479,23.058 L 123.479,26.699 L 124.049,26.7 L 124.049,26.7 z " id="path3754"/>
		<path d="M 127.186,26.7 L 127.186,22.025 L 126.816,22.025 C 126.717,22.225 126.546,22.434 126.309,22.648 C 126.069,22.861 125.789,23.045 125.47,23.193 L 125.47,23.747 C 125.646,23.681 125.848,23.582 126.071,23.451 C 126.295,23.32 126.473,23.189 126.613,23.058 L 126.613,26.699 L 127.186,26.7 L 127.186,26.7 z " id="path3756"/>
	</g>
	<g id="g3758">
		<path d="M 109.454,26.684 L 109.454,22.01 L 109.085,22.01 C 108.986,22.21 108.815,22.42 108.577,22.633 C 108.338,22.848 108.059,23.03 107.74,23.18 L 107.74,23.732 C 107.917,23.666 108.118,23.568 108.341,23.437 C 108.564,23.305 108.744,23.174 108.881,23.044 L 108.881,26.684 L 109.454,26.684 L 109.454,26.684 z " id="path3760"/>
		<path d="M 111.385,26.398 C 111.655,26.641 111.996,26.762 112.404,26.762 C 112.858,26.762 113.233,26.622 113.527,26.338 C 113.822,26.058 113.972,25.713 113.972,25.305 C 113.972,25.005 113.895,24.755 113.743,24.555 C 113.591,24.356 113.374,24.225 113.099,24.16 C 113.311,24.061 113.47,23.932 113.578,23.766 C 113.687,23.6 113.742,23.417 113.742,23.215 C 113.742,23.005 113.684,22.805 113.57,22.616 C 113.458,22.428 113.295,22.28 113.079,22.17 C 112.866,22.061 112.633,22.006 112.378,22.006 C 112.01,22.006 111.701,22.111 111.453,22.323 C 111.206,22.532 111.048,22.829 110.978,23.211 L 111.551,23.315 C 111.594,23.035 111.692,22.827 111.837,22.689 C 111.987,22.55 112.17,22.481 112.394,22.481 C 112.618,22.481 112.801,22.549 112.942,22.686 C 113.084,22.824 113.155,22.997 113.155,23.206 C 113.155,23.47 113.058,23.665 112.863,23.792 C 112.669,23.92 112.451,23.983 112.208,23.983 C 112.186,23.983 112.154,23.981 112.117,23.977 L 112.054,24.48 C 112.214,24.438 112.348,24.416 112.456,24.416 C 112.721,24.416 112.939,24.501 113.109,24.673 C 113.282,24.842 113.367,25.057 113.367,25.32 C 113.367,25.595 113.275,25.826 113.091,26.011 C 112.905,26.197 112.678,26.29 112.409,26.29 C 112.179,26.29 111.987,26.22 111.828,26.074 C 111.672,25.93 111.563,25.696 111.495,25.37 L 110.924,25.449 C 110.96,25.838 111.115,26.155 111.385,26.398 z " id="path3762"/>
	</g>
	<g id="g3764">
		<path d="M 95.529,26.684 L 95.529,22.009 L 95.162,22.009 C 95.062,22.211 94.892,22.419 94.653,22.632 C 94.416,22.847 94.135,23.029 93.816,23.179 L 93.816,23.731 C 93.992,23.666 94.193,23.568 94.417,23.436 C 94.641,23.306 94.819,23.174 94.958,23.043 L 94.958,26.685 L 95.529,26.684 L 95.529,26.684 z " id="path3766"/>
		<path d="M 97.454,26.408 C 97.722,26.646 98.069,26.763 98.493,26.763 C 99.013,26.763 99.418,26.576 99.718,26.198 C 99.965,25.89 100.087,25.525 100.087,25.105 C 100.087,24.662 99.946,24.3 99.666,24.019 C 99.388,23.736 99.044,23.597 98.638,23.597 C 98.33,23.597 98.036,23.693 97.756,23.887 L 98.008,22.636 L 99.872,22.636 L 99.872,22.09 L 97.55,22.09 L 97.097,24.484 L 97.633,24.552 C 97.719,24.417 97.834,24.308 97.981,24.226 C 98.131,24.141 98.297,24.1 98.484,24.1 C 98.784,24.1 99.024,24.195 99.206,24.383 C 99.392,24.573 99.481,24.831 99.481,25.156 C 99.481,25.501 99.385,25.776 99.197,25.983 C 99.005,26.191 98.772,26.295 98.493,26.295 C 98.264,26.295 98.067,26.221 97.906,26.074 C 97.743,25.926 97.642,25.708 97.598,25.416 L 96.997,25.466 C 97.034,25.857 97.187,26.172 97.454,26.408 z " id="path3768"/>
	</g>
	<g id="g3770">
		<path d="M 81.644,22.027 L 81.274,22.027 C 81.174,22.227 81.006,22.435 80.767,22.65 C 80.527,22.862 80.249,23.045 79.929,23.195 L 79.929,23.748 C 80.108,23.683 80.306,23.584 80.53,23.453 C 80.755,23.321 80.934,23.189 81.071,23.059 L 81.071,26.702 L 81.644,26.702 L 81.644,22.027 L 81.644,22.027 z " id="path3772"/>
		<path d="M 83.152,22.652 L 85.428,22.652 C 85.138,22.983 84.864,23.389 84.608,23.872 C 84.351,24.353 84.154,24.853 84.016,25.372 C 83.879,25.891 83.808,26.333 83.803,26.699 L 84.389,26.699 C 84.418,26.235 84.493,25.808 84.608,25.418 C 84.765,24.866 84.991,24.328 85.281,23.805 C 85.572,23.283 85.865,22.862 86.16,22.546 L 86.16,22.102 L 83.15,22.102 L 83.15,22.653 L 83.152,22.652 L 83.152,22.652 z " id="path3774"/>
	</g>
	<g id="g3776">
		<path d="M 67.732,26.684 L 67.732,22.009 L 67.362,22.009 C 67.264,22.21 67.093,22.417 66.855,22.632 C 66.617,22.846 66.338,23.028 66.019,23.179 L 66.019,23.731 C 66.195,23.665 66.397,23.568 66.619,23.436 C 66.844,23.304 67.023,23.172 67.161,23.041 L 67.161,26.685 L 67.732,26.684 L 67.732,26.684 z " id="path3778"/>
		<path d="M 69.701,26.459 C 69.932,26.662 70.228,26.763 70.592,26.763 C 70.935,26.763 71.234,26.671 71.491,26.487 C 71.746,26.303 71.939,26.034 72.066,25.682 C 72.197,25.33 72.263,24.856 72.263,24.261 C 72.263,23.69 72.197,23.252 72.065,22.952 C 71.935,22.65 71.747,22.416 71.492,22.255 C 71.242,22.093 70.965,22.01 70.663,22.01 C 70.242,22.01 69.892,22.154 69.613,22.441 C 69.335,22.729 69.195,23.109 69.195,23.581 C 69.195,24.037 69.33,24.407 69.596,24.686 C 69.863,24.964 70.189,25.105 70.573,25.105 C 70.804,25.105 71.018,25.047 71.218,24.933 C 71.415,24.823 71.571,24.673 71.686,24.49 C 71.687,24.54 71.688,24.579 71.688,24.606 C 71.688,24.844 71.658,25.076 71.603,25.304 C 71.545,25.533 71.477,25.714 71.39,25.849 C 71.307,25.983 71.198,26.089 71.065,26.171 C 70.932,26.251 70.777,26.294 70.604,26.294 C 70.398,26.294 70.229,26.233 70.098,26.118 C 69.969,26.003 69.878,25.815 69.832,25.559 L 69.281,25.609 C 69.332,25.974 69.471,26.258 69.701,26.459 z M 71.366,24.322 C 71.197,24.508 70.98,24.6 70.714,24.6 C 70.452,24.6 70.23,24.506 70.053,24.322 C 69.874,24.135 69.784,23.896 69.784,23.597 C 69.784,23.268 69.875,22.998 70.065,22.79 C 70.255,22.584 70.475,22.478 70.73,22.478 C 70.979,22.478 71.188,22.575 71.362,22.769 C 71.535,22.962 71.621,23.221 71.621,23.549 C 71.621,23.881 71.538,24.136 71.366,24.322 z " id="path3780"/>
	</g>
</g>
</svg>